REM MD5 fa12bef7c96a902c481291edfa2ab3df
FILE "Dengeki PlayStation D35 (Japan).bin" BINARY
  TRACK 01 MODE2/2352
    INDEX 01 00:00:00
  TRACK 02 AUDIO
    INDEX 00 54:44:54
    INDEX 01 54:46:54
  TRACK 03 AUDIO
    INDEX 00 56:47:07
    INDEX 01 56:49:07
  TRACK 04 AUDIO
    INDEX 00 60:05:63
    INDEX 01 60:07:63
REM LEADOUT 63:37:63
